<svg id="Capa_1" enable-background="new 0 0 512.041 512.041" height="512" viewBox="0 0 512.041 512.041" width="512" xmlns="http://www.w3.org/2000/svg"><g><g><circle cx="377" cy="162.02" fill="#fed843" r="135"/><path d="m512 162.02c0-74.559-60.441-135-135-135v270c74.559.001 135-60.441 135-135z" fill="#fabe2c"/><g><path d="m405.917 154.917c-8.007-4.273-17.246-5.987-26.181-7.645-6.692-1.242-13.613-2.525-17.527-4.614-1.996-1.066-1.996-1.342-1.996-3.138 0-1.063 1.73-3.003 5.038-4.657 8.19-4.094 19.74-3.759 25.749.748 6.629 4.971 16.029 3.627 21-3s3.628-16.029-3-21c-4.933-3.7-10.755-6.344-17-7.917v-3.673c0-8.284-6.716-15-15-15s-15 6.716-15 15v4.123c-3.494.969-6.908 2.258-10.165 3.887-13.741 6.87-21.622 18.348-21.622 31.49 0 13.127 6.18 23.364 17.871 29.604 8.006 4.273 17.245 5.987 26.18 7.645 6.693 1.242 13.613 2.525 17.527 4.614 1.996 1.065 1.996 1.342 1.996 3.137 0 1.028-1.775 3.007-5.064 4.652-8.183 4.092-19.723 3.758-25.723-.742-6.627-4.971-16.029-3.626-21 3-4.971 6.628-3.627 16.03 3 21 4.933 3.7 10.756 6.342 17 7.914v3.676c0 8.284 6.716 15 15 15s15-6.716 15-15v-4.145c3.485-.968 6.891-2.246 10.14-3.871 13.757-6.879 21.647-18.354 21.647-31.485 0-13.126-6.18-23.363-17.87-29.603z" fill="#fabe2c"/><g><g fill="#ff9100"><path d="m391 135.611c6.629 4.971 16.029 3.627 21-3s3.628-16.029-3-21c-4.933-3.7-10.755-6.344-17-7.917v-3.673c0-8.284-6.716-15-15-15v47.001c5.367-.184 10.581 1.025 14 3.589z"/><path d="m392 224.021v-4.145c3.485-.968 6.891-2.246 10.14-3.871 13.757-6.879 21.647-18.354 21.647-31.485 0-13.127-6.18-23.364-17.87-29.604-8.007-4.273-17.246-5.987-26.181-7.645-.911-.169-1.825-.339-2.736-.511v30.52c5.784 1.095 11.41 2.298 14.791 4.103 1.996 1.065 1.996 1.342 1.996 3.137 0 1.028-1.775 3.007-5.064 4.652-3.522 1.761-7.666 2.698-11.723 2.839v47.008c8.284.002 15-6.714 15-14.998z"/></g></g></g></g><path d="m506.6 344.121c-9.6-13.801-28.2-17.1-41.7-7.5l-80.4 56.4c-2.386 1.386-5.024 2.155-7.5 3.342-24.302 11.64-52.434 14.07-78.3 5.358l-91.5-30.601c-7.8-2.399-12.001-11.1-9.3-18.898 2.399-7.5 10.199-11.7 17.999-9.6.3 0 102.9 33.6 102.9 33.6 17.446 5.229 32.946-4.642 37.8-19.2 5.099-15.901-3.6-32.701-19.2-37.8l-140.099-46.201c-45.031-16.393-113.132-4.827-148.1 46.8l-19.2 54.289v63.14l178.7 40.371c21.561 4.742 41.717 7.399 62.1 7.399h3.3c35.828-.427 70.486-8.331 102.9-21.669 13.182-5.424 26.085-11.572 38.401-19.032l83.699-58.499c14.099-9.899 16.8-28.499 7.5-41.699z" fill="#ffe1ba"/><path d="m499.1 385.821c14.099-9.901 16.8-28.5 7.5-41.7-9.6-13.801-28.2-17.1-41.7-7.5l-80.4 56.4c-2.386 1.386-5.024 2.155-7.5 3.342v66.989c13.182-5.424 26.085-11.572 38.401-19.032z" fill="#ffbfab"/><path d="m45 477.021h-30c-8.284 0-15-6.716-15-15v-150c0-8.284 6.716-15 15-15h30c8.284 0 15 6.716 15 15v150c0 8.284-6.716 15-15 15z" fill="#384949"/></g></svg>